# xmcd
#
# Track frame offsets: 
#        150
#        9640
#        22312
#        42540
#        52187
#        61677
#        75892
#        90172
#        100250
#        117397
#        135570
#        150127
#        165215
#        179115
#        195422
#        207207
#        221272
#        234395
#        251785
#        265777
#        275305
#        286095
#        300655
#        311040
#
# Disc length: 4285 seconds
#
# Revision: 5
# Processed by: cddbd v1.5.2PL0 Copyright (c) Steve Scherf et al.
# Submitted via: ExactAudioCopyFreeDBPlugin 1.0
#
DISCID=3c10bb18
DTITLE=Waldemar Matuška - Co neodnesl čas
DYEAR=1989
DGENRE=český Pop
TTITLE0=Tuhle rundu platím já
TTITLE1=Ďáblovo stádo (Riders In The Sky)
TTITLE2=Tam nad tou hrází (She Believes in Me)
TTITLE3=Marnivá sestřenice
TTITLE4=Mrholí
TTITLE5=Písnička pro Zuzanu
TTITLE6=Oslí serenáda (Donkey Serenade)
TTITLE7=Pramínek vlasů
TTITLE8=Slavíci z Madridu (Rossignol Anglais)
TTITLE9=Den jde spát (Take This Heart)
TTITLE10=Árie měsíce
TTITLE11=Tak abyste to věděla
TTITLE12=To se nikdo nedoví
TTITLE13=Jó, třešně zrály (Jailer, Give Me Wather)
TTITLE14=Září bílý sníh (Tear Time)
TTITLE15=Granada
TTITLE16=Buď pořád se mnou (High Noon)
TTITLE17=Růže z Texasu
TTITLE18=Blues o stabilitě
TTITLE19=V domě straší duch
TTITLE20=Já se dnes odpoledne žením (Get Me To The Church On Time)
TTITLE21=Sbohem lásko (Laisse Moi Petite Fille)
TTITLE22=Holky já mám všechny rád (Snowbird)
TTITLE23=Léta pádí (Broken Lady)
EXTD=YEAR: 1989
EXTT0=
EXTT1=
EXTT2=
EXTT3=
EXTT4=
EXTT5=
EXTT6=
EXTT7=
EXTT8=
EXTT9=
EXTT10=
EXTT11=
EXTT12=
EXTT13=
EXTT14=
EXTT15=
EXTT16=
EXTT17=
EXTT18=
EXTT19=
EXTT20=
EXTT21=
EXTT22=
EXTT23=
PLAYORDER=
